<svg width="150" height="150" viewBox="0 0 150 150" fill="none" xmlns="http://www.w3.org/2000/svg">
<rect width="150" height="150" fill="#F1FAEE"/>
<g id="sitepoint-seeklogo.com 1" clip-path="url(#clip0_0_1)">
<g id="logo">
<path id="Vector" fill-rule="evenodd" clip-rule="evenodd" d="M146.257 84.0184L133.02 73.4647L91.1746 41.4009L73.1357 55.6875C71.4865 57.5588 71.5984 60.0849 73.472 61.8346L89.9637 73.6797L89.9069 73.6983L107.632 87.8261C109.73 89.7722 109.674 92.6539 107.475 94.5248L59.6846 132.399L81.415 149.698L146.257 98.3144C151.227 94.3665 151.238 87.9663 146.257 83.9994V84.0184V84.0184Z" fill="#A8DADC"/>
<path id="Vector_2" fill-rule="evenodd" clip-rule="evenodd" d="M3.72679 65.699L16.9647 76.2249L58.8319 108.288L76.8597 94.0016C77.6608 93.1013 78.0648 91.998 78.0035 90.8781C77.9423 89.7582 77.4195 88.6902 76.5234 87.8545L60.0317 75.9908L60.088 75.9625L42.3519 61.8444C40.2763 59.9076 40.3325 57.0166 42.5201 55.1545L90.3108 17.2622L68.5805 0L3.73851 51.384C-1.23185 55.3319 -1.23185 61.7413 3.73851 65.699H3.72679V65.699Z" fill="#1D3557"/>
</g>
</g>
<defs>
<clipPath id="clip0_0_1">
<rect width="150" height="150" fill="white"/>
</clipPath>
</defs>
</svg>
