<svg width="650" height="310" viewBox="0 0 650 310" fill="none" xmlns="http://www.w3.org/2000/svg">
<rect width="650" height="310" fill="#F1FAEE"/>
<g id="undraw_calculator_re_jy39 1" clip-path="url(#clip0_0_1)">
<rect width="650" height="310" fill="#F1FAEE"/>
<path id="Vector" d="M3.59315e-05 309.286C-0.000442904 309.38 0.0308457 309.473 0.0921212 309.559C0.153397 309.646 0.243428 309.725 0.357058 309.791C0.470689 309.858 0.605689 309.91 0.754245 309.946C0.9028 309.982 1.062 310 1.2227 310H648.778C649.102 310 649.413 309.925 649.642 309.791C649.871 309.657 650 309.475 650 309.286C650 309.096 649.871 308.915 649.642 308.781C649.413 308.647 649.102 308.572 648.778 308.572H1.22263C1.06195 308.571 0.902728 308.59 0.754182 308.625C0.605636 308.661 0.470681 308.714 0.357058 308.78C0.243435 308.847 0.153395 308.925 0.0921212 309.012C0.0308476 309.099 -0.000437411 309.192 3.59315e-05 309.286V309.286Z" fill="#001219"/>
<g id="Group 1">
<path id="Vector_2" d="M86.9309 301.722L98.1957 301.722L103.555 277.251H86.9288L86.9309 301.722Z" fill="#9E616A"/>
<path id="Vector_3" d="M84.0572 299.651L87.228 299.651L99.6075 296.815L106.242 299.65H106.243C109.993 299.65 113.589 300.489 116.24 301.982C118.892 303.476 120.381 305.501 120.382 307.612V307.871L84.0579 307.872L84.0572 299.651Z" fill="#001219"/>
<path id="Vector_4" d="M139.267 301.722L150.532 301.722L155.891 277.251H139.265L139.267 301.722Z" fill="#9E616A"/>
<path id="Vector_5" d="M136.393 299.651L139.564 299.651L151.944 296.815L158.579 299.65H158.579C162.329 299.65 165.925 300.489 168.576 301.982C171.228 303.476 172.717 305.501 172.718 307.612V307.871L136.394 307.872L136.393 299.651Z" fill="#001219"/>
<path id="Vector_6" d="M148.272 167.804L59.7621 169.105L61.3013 193.378C61.3013 193.378 59.762 199.88 62.8406 201.614C65.9192 203.347 67.4585 203.347 65.9192 206.382C64.3799 209.416 72.5128 214.371 71.5249 214.928C70.5371 215.484 68.2282 218.518 68.2282 218.518L75.9247 243.225C75.9247 243.225 81.3122 286.136 82.8515 287.003C84.3908 287.87 85.9301 287.003 84.3908 289.171C82.8515 291.338 81.3122 290.471 82.8515 291.338C84.215 292.166 85.4996 293.034 86.6997 293.939H105.308C105.308 293.939 106.711 289.604 106.711 289.171C106.711 288.737 108.25 286.136 108.25 285.703C108.25 285.27 106.889 284.503 106.889 284.503C106.419 283.622 106.102 282.717 105.941 281.802C105.941 280.935 101.323 247.559 101.323 247.559L110.559 204.214L132.879 246.692C132.879 246.692 132.879 283.969 134.418 284.836C135.957 285.703 135.957 285.27 135.188 287.003C134.418 288.737 131.339 288.304 133.648 289.604C135.957 290.904 136.727 288.737 135.957 290.904L135.188 293.072L158.277 293.258C158.277 293.258 161.356 289.604 159.816 288.304C158.277 287.003 158.369 287.358 160.247 285.23C162.125 283.102 162.895 282.669 162.125 282.235C161.356 281.802 161.356 279.496 161.356 279.496L157.507 238.023C157.507 238.023 156.738 194.245 156.738 192.945C156.68 192.275 156.899 191.608 157.377 190.995V189.23L154.429 182.975L148.272 167.804Z" fill="#001219"/>
<path id="Vector_7" d="M248.437 73.2677C248.012 73.9336 247.333 74.5388 246.447 75.0408C245.561 75.5427 244.491 75.9293 243.312 76.1731C242.132 76.4169 240.872 76.5121 239.62 76.452C238.368 76.3919 237.155 76.178 236.066 75.8252L197.646 93.9525L195.558 85.0919L233.136 68.8911C234.309 67.8999 236.088 67.1856 238.134 66.8835C240.18 66.5813 242.352 66.7124 244.238 67.2519C246.124 67.7914 247.593 68.7017 248.367 69.8105C249.141 70.9192 249.166 72.1493 248.437 73.2677V73.2677Z" fill="#9E616A"/>
<path id="Vector_8" d="M79.0255 80.7492C92.2025 80.7492 102.885 74.7332 102.885 67.3122C102.885 59.8912 92.2025 53.8752 79.0255 53.8752C65.8485 53.8752 55.1664 59.8912 55.1664 67.3122C55.1664 74.7332 65.8485 80.7492 79.0255 80.7492Z" fill="#9E616A"/>
<path id="Vector_9" d="M98.368 53.9396C96.1468 50.958 86.6275 49.1877 71.5644 49.4543C56.5012 49.7209 53.8633 59.8373 53.8633 59.8373C45.5666 64.1924 58.9615 77.79 61.2854 75.9152C63.6093 74.0405 67.5111 75.8126 67.5111 75.8126L63.7928 64.0338C67.7195 64.8845 71.9425 65.4558 75.6359 64.4646L69.5165 62.6218C74.5882 62.9772 79.6599 63.3326 84.7317 63.6881L78.4569 60.9694C78.609 60.9412 78.7611 60.9118 78.9133 60.8829C81.4297 61.494 84.1246 61.8385 86.8628 61.8994C90.0618 61.8859 93.4615 61.0417 94.802 59.4058C95.1585 58.9566 95.3515 58.4717 95.3698 57.9798C99.7806 58.7863 102.097 61.6964 102.097 61.6964C101.259 59.0543 100.012 56.4587 98.368 53.9396V53.9396Z" fill="#001219"/>
<path id="Vector_10" d="M98.1237 81.3502C92.7956 81.3502 89.3643 81.7643 81.0737 82.5505C65.7713 84.0028 74.9357 92.1914 74.9357 92.1914C74.9357 92.1914 75.6283 91.9934 73.7528 92.1914C71.8773 92.3895 65.4836 95.5042 65.4836 95.5042L54.0494 101.224C36.8181 108.839 40.6757 120.722 40.6757 120.722L65.8032 134.963L54.7953 163.536C54.7953 163.536 59.4734 167.779 57.0544 169.682C54.6353 171.584 78.3669 171.038 78.3669 171.038C94.7456 175.149 152.449 171.674 152.449 171.674C151.65 170.498 143.924 161.382 143.924 161.382C147.281 158.117 144.084 153.4 144.084 153.4C144.084 153.4 140.749 131.087 138.618 128.002C136.486 124.917 144.074 108.203 149.061 108.383C154.048 108.563 186.262 99.3091 186.262 99.3091C186.262 99.3091 185.452 98.5829 196.087 96.1344C202.195 94.7826 207.796 92.7933 212.593 90.271L216.963 85.3558C214.863 85.812 207.777 78.2862 207.777 78.2862L204.686 78.9496L202.896 78.6583C202.896 78.6583 188.926 80.8968 186.07 82.5292C183.214 84.1616 182.255 83.7055 179.676 84.0715C177.097 84.4376 176.778 85.4579 175.968 85.3438C175.158 85.2298 173.719 86.6101 172.59 86.4301C171.46 86.25 169.041 86.9762 167.432 87.1563C165.823 87.3363 154.389 90.0609 154.389 90.0609C147.313 88.0445 128.132 88.8607 128.132 88.8607C128.132 88.8607 121.855 86.7782 120.076 88.8607C119.597 89.4523 118.828 89.9547 117.86 90.3087C116.891 90.6627 115.763 90.8537 114.609 90.8591L106.958 89.0167C106.513 89.9308 98.1674 80.4027 98.1237 81.3502Z" fill="#457B9D"/>
<path id="Vector_11" d="M61.5947 193.176C60.759 192.648 60.1393 192.023 59.7791 191.345C59.4189 190.667 59.327 189.953 59.5098 189.253C59.6927 188.552 60.1459 187.884 60.8376 187.293C61.5292 186.702 62.4424 186.204 63.5128 185.833L52.6729 161.835L67.4932 165.033L75.7297 187.695C76.7157 188.749 76.9809 189.97 76.475 191.127C75.9692 192.284 74.7274 193.296 72.9851 193.971C71.2428 194.647 69.1209 194.939 67.0216 194.793C64.9223 194.646 62.9913 194.071 61.5947 193.176V193.176Z" fill="#9E616A"/>
<path id="Vector_12" d="M41.6454 116.158L40.3067 125.742C40.3067 125.742 38.6427 136.27 39.0784 138.217C39.5141 140.164 40.3255 152.053 40.3255 152.053L54.4329 167.77L70.4173 165.37L69.4608 157.997L70.4173 164.77L72.5486 158.768L67.2205 148.566L70.4173 144.965L68.8052 132.878L41.6454 116.158Z" fill="#457B9D"/>
<path id="Vector_13" d="M535.9 234.481H466.989C465.153 234.48 463.392 234.068 462.094 233.337C460.795 232.606 460.065 231.614 460.063 230.58V196.972C460.065 195.938 460.795 194.946 462.094 194.215C463.392 193.484 465.153 193.072 466.989 193.071H535.9C537.736 193.072 539.497 193.484 540.795 194.215C542.094 194.946 542.824 195.938 542.826 196.972V230.58C542.824 231.614 542.094 232.606 540.795 233.337C539.497 234.068 537.736 234.48 535.9 234.481V234.481Z" fill="#F1FAEE"/>
<path id="Vector_14" d="M535.9 191.871H466.989C465.153 191.87 463.392 191.458 462.094 190.727C460.795 189.996 460.065 189.004 460.063 187.97V154.362C460.065 153.328 460.795 152.336 462.094 151.605C463.392 150.874 465.153 150.462 466.989 150.461H535.9C537.736 150.462 539.497 150.874 540.795 151.605C542.094 152.336 542.824 153.328 542.826 154.362V187.97C542.824 189.004 542.094 189.996 540.795 190.727C539.497 191.458 537.736 191.87 535.9 191.871V191.871Z" fill="#F1FAEE"/>
<path id="Vector_15" d="M535.9 277.091H466.989C465.153 277.09 463.392 276.678 462.094 275.947C460.795 275.216 460.065 274.224 460.063 273.19V239.582C460.065 238.548 460.795 237.556 462.094 236.825C463.392 236.094 465.153 235.682 466.989 235.681H535.9C537.736 235.682 539.497 236.094 540.795 236.825C542.094 237.556 542.824 238.548 542.826 239.582V273.19C542.824 274.224 542.094 275.216 540.795 275.947C539.497 276.678 537.736 277.09 535.9 277.091Z" fill="#F1FAEE"/>
<path id="Vector_16" d="M451.005 277.091H382.094C380.257 277.09 378.497 276.678 377.198 275.947C375.9 275.216 375.169 274.224 375.167 273.19V239.582C375.169 238.548 375.9 237.556 377.198 236.825C378.497 236.094 380.257 235.682 382.094 235.681H451.005C452.841 235.682 454.602 236.094 455.9 236.825C457.199 237.556 457.929 238.548 457.931 239.582V273.19C457.929 274.224 457.199 275.216 455.9 275.947C454.602 276.678 452.841 277.09 451.005 277.091V277.091Z" fill="#F1FAEE"/>
<path id="Vector_17" d="M638.397 191.871H551.884C550.048 191.87 548.287 191.458 546.989 190.727C545.69 189.996 544.96 189.004 544.957 187.97V154.362C544.96 153.328 545.69 152.336 546.989 151.605C548.287 150.874 550.048 150.462 551.884 150.461H638.397C640.234 150.462 641.994 150.874 643.293 151.605C644.591 152.336 645.322 153.328 645.324 154.362V187.97C645.322 189.004 644.591 189.996 643.293 190.727C641.994 191.458 640.234 191.87 638.397 191.871V191.871Z" fill="#F1FAEE"/>
<path id="Vector_18" d="M287.608 148.961V148.835H290.805V148.961H372.503V148.835H375.7V148.961H457.399V149.222H460.595V148.961H542.294V149.222H545.49V148.961H644.791V21.9713C644.791 19.086 643.782 16.2289 641.821 13.5632C639.861 10.8976 636.987 8.47546 633.364 6.43523C629.742 4.39501 625.441 2.77662 620.708 1.67246C615.974 0.568304 610.901 0 605.778 0H225.584C215.237 1.59167e-06 205.314 2.31482 197.997 6.43523C190.681 10.5556 186.571 16.1441 186.571 21.9713V148.961H287.608Z" fill="#001219"/>
<path id="Vector_19" d="M638.397 193.071H551.884C548.065 193.071 544.957 196.629 544.957 201.002V273.19C544.96 274.027 545.439 274.841 546.324 275.513C547.21 276.185 548.455 276.679 549.876 276.922C550.475 277.14 551.171 277.259 551.884 277.265H638.397C639.11 277.259 639.806 277.14 640.405 276.922C641.826 276.679 643.072 276.185 643.957 275.513C644.843 274.841 645.322 274.027 645.324 273.19V201.002C645.324 196.629 642.216 193.071 638.397 193.071Z" fill="#F1FAEE"/>
<path id="Vector_20" d="M281.215 277.091H192.965C191.128 277.09 189.368 276.678 188.069 275.947C186.771 275.216 186.04 274.224 186.038 273.19V239.582C186.04 238.548 186.771 237.556 188.069 236.825C189.368 236.094 191.128 235.682 192.965 235.681H281.215C283.051 235.682 284.811 236.094 286.11 236.825C287.409 237.556 288.139 238.548 288.141 239.582V273.19C288.139 274.224 287.409 275.216 286.11 275.947C284.811 276.678 283.051 277.09 281.215 277.091Z" fill="#F1FAEE"/>
<path id="Vector_21" d="M281.215 234.481H192.965C191.128 234.48 189.368 234.068 188.069 233.337C186.771 232.606 186.04 231.614 186.038 230.58V196.972C186.04 195.938 186.771 194.946 188.069 194.215C189.368 193.484 191.128 193.072 192.965 193.071H281.215C283.051 193.072 284.811 193.484 286.11 194.215C287.409 194.946 288.139 195.938 288.141 196.972V230.58C288.139 231.614 287.409 232.606 286.11 233.337C284.811 234.068 283.051 234.48 281.215 234.481V234.481Z" fill="#F1FAEE"/>
<path id="Vector_22" d="M545.49 279.191V278.456H542.293V279.191H460.595V279.656H457.399V279.191H375.7V279.656H372.503V279.191H290.805V279.656H287.608V279.191H186.571V285.901C186.571 291.728 190.681 297.316 197.998 301.437C205.314 305.557 215.237 307.872 225.584 307.872H605.778C616.125 307.872 626.048 305.557 633.364 301.437C640.681 297.316 644.791 291.728 644.791 285.901V279.191H545.49Z" fill="#001219"/>
<path id="Vector_23" d="M281.215 191.871H192.965C191.128 191.87 189.368 191.458 188.069 190.727C186.771 189.996 186.04 189.004 186.038 187.97V154.362C186.04 153.328 186.771 152.336 188.069 151.605C189.368 150.874 191.128 150.462 192.965 150.461H281.215C283.051 150.462 284.811 150.874 286.11 151.605C287.409 152.336 288.139 153.328 288.141 154.362V187.97C288.139 189.004 287.409 189.996 286.11 190.727C284.811 191.458 283.051 191.87 281.215 191.871Z" fill="#F1FAEE"/>
<path id="Vector_24" d="M366.109 234.481H297.199C295.363 234.48 293.602 234.068 292.303 233.337C291.005 232.606 290.274 231.614 290.272 230.58V196.972C290.274 195.938 291.005 194.946 292.303 194.215C293.602 193.484 295.363 193.072 297.199 193.071H366.109C367.946 193.072 369.706 193.484 371.005 194.215C372.303 194.946 373.034 195.938 373.036 196.972V230.58C373.034 231.614 372.303 232.606 371.005 233.337C369.706 234.068 367.946 234.48 366.109 234.481V234.481Z" fill="#F1FAEE"/>
<path id="Vector_25" d="M366.109 277.091H297.199C295.363 277.09 293.602 276.678 292.303 275.947C291.005 275.216 290.274 274.224 290.272 273.19V239.582C290.274 238.548 291.005 237.556 292.303 236.825C293.602 236.094 295.363 235.682 297.199 235.681H366.109C367.946 235.682 369.706 236.094 371.005 236.825C372.303 237.556 373.034 238.548 373.036 239.582V273.19C373.034 274.224 372.303 275.216 371.005 275.947C369.706 276.678 367.946 277.09 366.109 277.091Z" fill="#F1FAEE"/>
<path id="Vector_26" d="M451.005 191.871H382.094C380.257 191.87 378.497 191.458 377.198 190.727C375.9 189.996 375.169 189.004 375.167 187.97V154.362C375.169 153.328 375.9 152.336 377.198 151.605C378.497 150.874 380.257 150.462 382.094 150.461H451.005C452.841 150.462 454.602 150.874 455.9 151.605C457.199 152.336 457.929 153.328 457.931 154.362V187.97C457.929 189.004 457.199 189.996 455.9 190.727C454.602 191.458 452.841 191.87 451.005 191.871V191.871Z" fill="#F1FAEE"/>
<path id="Vector_27" d="M525.441 229.254C528.972 229.254 531.834 227.641 531.834 225.653C531.834 223.664 528.972 222.052 525.441 222.052C521.909 222.052 519.047 223.664 519.047 225.653C519.047 227.641 521.909 229.254 525.441 229.254Z" fill="#457B9D"/>
<path id="Vector_28" d="M451.005 234.481H382.094C380.257 234.48 378.497 234.068 377.198 233.337C375.9 232.606 375.169 231.614 375.167 230.58V196.972C375.169 195.938 375.9 194.946 377.198 194.215C378.497 193.484 380.257 193.072 382.094 193.071H451.005C452.841 193.072 454.602 193.484 455.9 194.215C457.199 194.946 457.929 195.938 457.931 196.972V230.58C457.929 231.614 457.199 232.606 455.9 233.337C454.602 234.068 452.841 234.48 451.005 234.481V234.481Z" fill="#F1FAEE"/>
<path id="Vector_29" d="M366.109 191.871H297.199C295.363 191.87 293.602 191.458 292.303 190.727C291.005 189.996 290.274 189.004 290.272 187.97V154.362C290.274 153.328 291.005 152.336 292.303 151.605C293.602 150.874 295.363 150.462 297.199 150.461H366.109C367.946 150.462 369.706 150.874 371.005 151.605C372.303 152.336 373.034 153.328 373.036 154.362V187.97C373.034 189.004 372.303 189.996 371.005 190.727C369.706 191.458 367.946 191.87 366.109 191.871Z" fill="#F1FAEE"/>
<path id="Vector_30" d="M569.438 99.9233H267.252C260.412 99.9189 253.853 98.3866 249.016 95.6625C244.179 92.9384 241.458 89.245 241.451 85.3925V47.8386C241.459 43.9861 244.179 40.2927 249.016 37.5686C253.853 34.8445 260.412 33.3122 267.252 33.3078H569.438C576.278 33.3122 582.837 34.8445 587.674 37.5686C592.511 40.2927 595.231 43.9861 595.239 47.8386V85.3925C595.232 89.245 592.511 92.9384 587.674 95.6625C582.837 98.3866 576.278 99.9189 569.438 99.9233V99.9233Z" fill="#F1FAEE"/>
<path id="Vector_31" d="M468.429 88.5207H403.426C402.013 88.5207 400.658 88.2045 399.659 87.6418C398.659 87.0791 398.098 86.3158 398.098 85.52C398.098 84.7241 398.659 83.9609 399.659 83.3981C400.658 82.8354 402.013 82.5193 403.426 82.5193H468.429C469.843 82.5193 471.198 82.8354 472.197 83.3981C473.196 83.9609 473.758 84.7241 473.758 85.52C473.758 86.3158 473.196 87.0791 472.197 87.6418C471.198 88.2045 469.843 88.5207 468.429 88.5207Z" fill="#457B9D"/>
<path id="Vector_32" d="M557.942 88.8207H492.939C491.526 88.8207 490.171 88.5046 489.171 87.9419C488.172 87.3791 487.611 86.6159 487.611 85.82C487.611 85.0242 488.172 84.261 489.171 83.6982C490.171 83.1355 491.526 82.8193 492.939 82.8193H557.942C559.355 82.8193 560.711 83.1355 561.71 83.6982C562.709 84.261 563.27 85.0242 563.27 85.82C563.27 86.6159 562.709 87.3791 561.71 87.9419C560.711 88.5046 559.355 88.8207 557.942 88.8207Z" fill="#457B9D"/>
<path id="Vector_33" d="M376.785 88.8207H311.782C310.369 88.8207 309.014 88.5046 308.015 87.9419C307.015 87.3791 306.454 86.6159 306.454 85.82C306.454 85.0242 307.015 84.261 308.015 83.6982C309.014 83.1355 310.369 82.8193 311.782 82.8193H376.785C378.199 82.8193 379.554 83.1355 380.553 83.6982C381.552 84.261 382.114 85.0242 382.114 85.82C382.114 86.6159 381.552 87.3791 380.553 87.9419C379.554 88.5046 378.199 88.8207 376.785 88.8207Z" fill="#457B9D"/>
<path id="Vector_34" d="M522.244 186.043C525.775 186.043 528.637 184.431 528.637 182.443C528.637 180.454 525.775 178.842 522.244 178.842C518.713 178.842 515.85 180.454 515.85 182.443C515.85 184.431 518.713 186.043 522.244 186.043Z" fill="#457B9D"/>
<path id="Vector_35" d="M525.441 229.254C528.972 229.254 531.834 227.641 531.834 225.653C531.834 223.664 528.972 222.052 525.441 222.052C521.909 222.052 519.047 223.664 519.047 225.653C519.047 227.641 521.909 229.254 525.441 229.254Z" fill="#457B9D"/>
<path id="Vector_36" d="M627.741 186.043C631.272 186.043 634.135 184.431 634.135 182.443C634.135 180.454 631.272 178.842 627.741 178.842C624.21 178.842 621.347 180.454 621.347 182.443C621.347 184.431 624.21 186.043 627.741 186.043Z" fill="#457B9D"/>
<path id="Vector_37" d="M37.0768 276.435L36.0136 262.971C24.9299 259.635 12.5676 257.872 0 257.837C17.2967 265.801 15.1351 281.153 26.8619 291.863C30.5648 295.188 35.5487 298 41.4441 300.093C47.3396 302.185 53.9954 303.503 60.9186 303.95L75.393 308.941C77.3792 302.705 76.9413 296.301 74.1095 290.17C71.2778 284.039 66.1195 278.326 58.99 273.425C54.942 270.699 50.3004 268.27 45.1748 266.196C41.7081 271.344 37.0768 276.435 37.0768 276.435Z" fill="#457b9dff"/>
<path id="+" d="M590.991 180.409V165.409H593.536V180.409H590.991ZM584.763 174.182V171.636H599.763V174.182H584.763Z" fill="#001219"/>
<path id="=" d="M587.338 235.773V233.318H601.338V235.773H587.338ZM587.338 242.5V240.045H601.338V242.5H587.338Z" fill="#001219"/>
<path id="-" d="M506.009 171.773V174.273H495.827V171.773H506.009Z" fill="#001219"/>
<path id="X" d="M418.626 178.636V177.409C418.626 176.561 418.801 175.784 419.149 175.08C419.505 174.367 420.02 173.799 420.695 173.375C421.376 172.943 422.202 172.727 423.172 172.727C424.157 172.727 424.982 172.943 425.649 173.375C426.316 173.799 426.82 174.367 427.16 175.08C427.501 175.784 427.672 176.561 427.672 177.409V178.636C427.672 179.485 427.498 180.265 427.149 180.977C426.808 181.682 426.301 182.25 425.626 182.682C424.96 183.106 424.142 183.318 423.172 183.318C422.187 183.318 421.357 183.106 420.683 182.682C420.009 182.25 419.498 181.682 419.149 180.977C418.801 180.265 418.626 179.485 418.626 178.636ZM420.945 177.409V178.636C420.945 179.341 421.111 179.973 421.445 180.534C421.778 181.087 422.354 181.364 423.172 181.364C423.967 181.364 424.528 181.087 424.854 180.534C425.187 179.973 425.354 179.341 425.354 178.636V177.409C425.354 176.705 425.195 176.076 424.876 175.523C424.558 174.962 423.99 174.682 423.172 174.682C422.376 174.682 421.804 174.962 421.456 175.523C421.115 176.076 420.945 176.705 420.945 177.409ZM407.035 165.318V164.091C407.035 163.242 407.21 162.466 407.558 161.761C407.914 161.049 408.429 160.481 409.104 160.057C409.785 159.625 410.611 159.409 411.581 159.409C412.566 159.409 413.392 159.625 414.058 160.057C414.725 160.481 415.229 161.049 415.57 161.761C415.91 162.466 416.081 163.242 416.081 164.091V165.318C416.081 166.167 415.907 166.947 415.558 167.659C415.217 168.364 414.71 168.932 414.035 169.364C413.369 169.788 412.551 170 411.581 170C410.596 170 409.767 169.788 409.092 169.364C408.418 168.932 407.907 168.364 407.558 167.659C407.21 166.947 407.035 166.167 407.035 165.318ZM409.354 164.091V165.318C409.354 166.023 409.52 166.655 409.854 167.216C410.187 167.769 410.763 168.045 411.581 168.045C412.376 168.045 412.937 167.769 413.263 167.216C413.596 166.655 413.763 166.023 413.763 165.318V164.091C413.763 163.386 413.604 162.758 413.285 162.205C412.967 161.644 412.399 161.364 411.581 161.364C410.785 161.364 410.213 161.644 409.865 162.205C409.524 162.758 409.354 163.386 409.354 164.091ZM407.899 183L423.899 159.727H426.49L410.49 183H407.899Z" fill="#001219"/>
<path id="1" d="M240.692 245.727V269H237.874V248.682H237.738L232.056 252.455V249.591L237.874 245.727H240.692Z" fill="#001219"/>
<path id="2" d="M320.674 270V267.955L328.355 259.545C329.257 258.561 329.999 257.705 330.583 256.977C331.166 256.242 331.598 255.553 331.878 254.909C332.166 254.258 332.31 253.576 332.31 252.864C332.31 252.045 332.113 251.337 331.719 250.739C331.333 250.14 330.802 249.678 330.128 249.352C329.454 249.027 328.696 248.864 327.855 248.864C326.962 248.864 326.181 249.049 325.515 249.42C324.855 249.784 324.344 250.295 323.98 250.955C323.624 251.614 323.446 252.386 323.446 253.273H320.765C320.765 251.909 321.079 250.712 321.708 249.682C322.337 248.652 323.193 247.848 324.276 247.273C325.367 246.697 326.59 246.409 327.946 246.409C329.31 246.409 330.518 246.697 331.571 247.273C332.624 247.848 333.45 248.625 334.049 249.602C334.647 250.58 334.946 251.667 334.946 252.864C334.946 253.72 334.791 254.557 334.48 255.375C334.177 256.186 333.647 257.091 332.89 258.091C332.14 259.083 331.098 260.295 329.765 261.727L324.537 267.318V267.5H335.355V270H320.674Z" fill="#001219"/>
<path id="4" d="M495.418 264.227V261.909L505.645 245.727H507.327V249.318H506.191L498.463 261.545V261.727H512.236V264.227H495.418ZM506.372 269V263.523V262.443V245.727H509.054V269H506.372Z" fill="#001219"/>
<path id="3" d="M416.701 270.318C415.201 270.318 413.864 270.061 412.689 269.545C411.523 269.03 410.595 268.314 409.905 267.398C409.224 266.473 408.852 265.402 408.792 264.182H411.655C411.716 264.932 411.974 265.58 412.428 266.125C412.883 266.663 413.477 267.08 414.212 267.375C414.947 267.67 415.761 267.818 416.655 267.818C417.655 267.818 418.542 267.644 419.314 267.295C420.087 266.947 420.693 266.462 421.133 265.841C421.572 265.22 421.792 264.5 421.792 263.682C421.792 262.826 421.58 262.072 421.155 261.42C420.731 260.761 420.11 260.246 419.292 259.875C418.474 259.504 417.474 259.318 416.292 259.318H414.428V256.818H416.292C417.216 256.818 418.027 256.652 418.724 256.318C419.428 255.985 419.977 255.515 420.371 254.909C420.773 254.303 420.974 253.591 420.974 252.773C420.974 251.985 420.799 251.299 420.451 250.716C420.102 250.133 419.61 249.678 418.974 249.352C418.345 249.027 417.602 248.864 416.746 248.864C415.943 248.864 415.186 249.011 414.474 249.307C413.769 249.595 413.193 250.015 412.746 250.568C412.299 251.114 412.057 251.773 412.019 252.545H409.292C409.337 251.326 409.705 250.258 410.394 249.341C411.083 248.417 411.985 247.697 413.099 247.182C414.22 246.667 415.451 246.409 416.792 246.409C418.231 246.409 419.466 246.701 420.496 247.284C421.527 247.86 422.318 248.621 422.871 249.568C423.424 250.515 423.701 251.538 423.701 252.636C423.701 253.947 423.356 255.064 422.667 255.989C421.985 256.913 421.057 257.553 419.883 257.909V258.091C421.352 258.333 422.5 258.958 423.326 259.966C424.152 260.966 424.564 262.205 424.564 263.682C424.564 264.947 424.22 266.083 423.53 267.091C422.849 268.091 421.917 268.879 420.735 269.455C419.553 270.03 418.208 270.318 416.701 270.318Z" fill="#001219"/>
<path id="5" d="M239.783 227.318C238.45 227.318 237.249 227.053 236.181 226.523C235.113 225.992 234.256 225.265 233.613 224.341C232.969 223.417 232.616 222.364 232.556 221.182H235.283C235.389 222.235 235.866 223.106 236.715 223.795C237.571 224.477 238.594 224.818 239.783 224.818C240.738 224.818 241.586 224.595 242.328 224.148C243.078 223.701 243.666 223.087 244.09 222.307C244.522 221.519 244.738 220.629 244.738 219.636C244.738 218.621 244.514 217.716 244.067 216.92C243.628 216.117 243.022 215.485 242.249 215.023C241.476 214.561 240.594 214.326 239.601 214.318C238.889 214.311 238.158 214.42 237.408 214.648C236.658 214.867 236.041 215.152 235.556 215.5L232.919 215.182L234.328 203.727H246.419V206.227H236.692L235.874 213.091H236.01C236.488 212.712 237.086 212.398 237.806 212.148C238.525 211.898 239.275 211.773 240.056 211.773C241.48 211.773 242.749 212.114 243.863 212.795C244.984 213.47 245.863 214.394 246.499 215.568C247.143 216.742 247.465 218.083 247.465 219.591C247.465 221.076 247.131 222.402 246.465 223.568C245.806 224.727 244.897 225.644 243.738 226.318C242.578 226.985 241.26 227.318 239.783 227.318Z" fill="#001219"/>
<path id="6" d="M331.513 226.318C330.558 226.303 329.604 226.121 328.649 225.773C327.694 225.424 326.823 224.837 326.035 224.011C325.247 223.178 324.615 222.053 324.138 220.636C323.66 219.212 323.422 217.424 323.422 215.273C323.422 213.212 323.615 211.386 324.001 209.795C324.388 208.197 324.948 206.852 325.683 205.761C326.418 204.663 327.304 203.83 328.342 203.261C329.388 202.693 330.566 202.409 331.876 202.409C333.179 202.409 334.338 202.67 335.354 203.193C336.376 203.708 337.21 204.428 337.854 205.352C338.497 206.277 338.914 207.341 339.104 208.545H336.331C336.073 207.5 335.573 206.633 334.831 205.943C334.088 205.254 333.104 204.909 331.876 204.909C330.073 204.909 328.653 205.693 327.615 207.261C326.585 208.83 326.066 211.03 326.058 213.864H326.24C326.664 213.22 327.168 212.67 327.751 212.216C328.342 211.754 328.994 211.398 329.706 211.148C330.418 210.898 331.172 210.773 331.967 210.773C333.301 210.773 334.52 211.106 335.626 211.773C336.732 212.432 337.619 213.345 338.285 214.511C338.952 215.67 339.285 217 339.285 218.5C339.285 219.939 338.963 221.258 338.319 222.455C337.676 223.644 336.77 224.591 335.604 225.295C334.444 225.992 333.081 226.333 331.513 226.318ZM331.513 223.818C332.467 223.818 333.323 223.58 334.081 223.102C334.846 222.625 335.448 221.985 335.888 221.182C336.335 220.379 336.558 219.485 336.558 218.5C336.558 217.538 336.342 216.663 335.91 215.875C335.486 215.08 334.899 214.447 334.149 213.977C333.407 213.508 332.558 213.273 331.604 213.273C330.884 213.273 330.213 213.417 329.592 213.705C328.971 213.985 328.426 214.371 327.956 214.864C327.494 215.356 327.13 215.92 326.865 216.557C326.6 217.186 326.467 217.848 326.467 218.545C326.467 219.47 326.683 220.333 327.115 221.136C327.554 221.939 328.153 222.587 328.91 223.08C329.676 223.572 330.543 223.818 331.513 223.818Z" fill="#001219"/>
<path id="7" d="M411.639 227L422.048 206.409V206.227H410.048V203.727H424.957V206.364L414.593 227H411.639Z" fill="#001219"/>
<path id="8" d="M501.344 227.318C499.783 227.318 498.404 227.042 497.207 226.489C496.018 225.928 495.09 225.159 494.423 224.182C493.756 223.197 493.427 222.076 493.434 220.818C493.427 219.833 493.62 218.924 494.014 218.091C494.408 217.25 494.946 216.549 495.628 215.989C496.317 215.42 497.086 215.061 497.934 214.909V214.773C496.821 214.485 495.934 213.86 495.275 212.898C494.616 211.928 494.29 210.826 494.298 209.591C494.29 208.409 494.59 207.352 495.196 206.42C495.802 205.489 496.635 204.754 497.696 204.216C498.764 203.678 499.98 203.409 501.344 203.409C502.692 203.409 503.897 203.678 504.957 204.216C506.018 204.754 506.851 205.489 507.457 206.42C508.071 207.352 508.381 208.409 508.389 209.591C508.381 210.826 508.044 211.928 507.378 212.898C506.719 213.86 505.844 214.485 504.753 214.773V214.909C505.594 215.061 506.351 215.42 507.025 215.989C507.7 216.549 508.237 217.25 508.639 218.091C509.04 218.924 509.245 219.833 509.253 220.818C509.245 222.076 508.904 223.197 508.23 224.182C507.563 225.159 506.635 225.928 505.446 226.489C504.264 227.042 502.897 227.318 501.344 227.318ZM501.344 224.818C502.397 224.818 503.306 224.648 504.071 224.307C504.836 223.966 505.427 223.485 505.844 222.864C506.26 222.242 506.472 221.515 506.48 220.682C506.472 219.803 506.245 219.027 505.798 218.352C505.351 217.678 504.741 217.148 503.969 216.761C503.203 216.375 502.328 216.182 501.344 216.182C500.351 216.182 499.465 216.375 498.684 216.761C497.912 217.148 497.302 217.678 496.855 218.352C496.415 219.027 496.2 219.803 496.207 220.682C496.2 221.515 496.4 222.242 496.809 222.864C497.226 223.485 497.821 223.966 498.594 224.307C499.366 224.648 500.283 224.818 501.344 224.818ZM501.344 213.773C502.177 213.773 502.915 213.606 503.559 213.273C504.211 212.939 504.722 212.473 505.094 211.875C505.465 211.277 505.654 210.576 505.662 209.773C505.654 208.985 505.469 208.299 505.105 207.716C504.741 207.125 504.237 206.67 503.594 206.352C502.95 206.027 502.2 205.864 501.344 205.864C500.472 205.864 499.711 206.027 499.059 206.352C498.408 206.67 497.904 207.125 497.548 207.716C497.192 208.299 497.018 208.985 497.025 209.773C497.018 210.576 497.196 211.277 497.559 211.875C497.931 212.473 498.442 212.939 499.094 213.273C499.745 213.606 500.495 213.773 501.344 213.773Z" fill="#001219"/>
<path id="9" d="M239.919 159.409C240.874 159.417 241.828 159.598 242.783 159.955C243.738 160.311 244.609 160.902 245.397 161.727C246.185 162.545 246.817 163.663 247.294 165.08C247.772 166.496 248.01 168.273 248.01 170.409C248.01 172.477 247.813 174.314 247.419 175.92C247.033 177.519 246.472 178.867 245.738 179.966C245.01 181.064 244.124 181.898 243.078 182.466C242.041 183.034 240.866 183.318 239.556 183.318C238.253 183.318 237.09 183.061 236.067 182.545C235.052 182.023 234.219 181.299 233.567 180.375C232.923 179.443 232.51 178.364 232.328 177.136H235.101C235.351 178.205 235.847 179.087 236.59 179.784C237.34 180.473 238.328 180.818 239.556 180.818C241.351 180.818 242.768 180.034 243.806 178.466C244.851 176.898 245.374 174.682 245.374 171.818H245.192C244.768 172.455 244.264 173.004 243.681 173.466C243.097 173.928 242.45 174.284 241.738 174.534C241.025 174.784 240.268 174.909 239.465 174.909C238.131 174.909 236.908 174.58 235.794 173.92C234.688 173.254 233.802 172.341 233.135 171.182C232.476 170.015 232.147 168.682 232.147 167.182C232.147 165.758 232.465 164.455 233.101 163.273C233.745 162.083 234.647 161.136 235.806 160.432C236.972 159.727 238.344 159.386 239.919 159.409ZM239.919 161.909C238.965 161.909 238.105 162.148 237.34 162.625C236.582 163.095 235.98 163.731 235.533 164.534C235.094 165.33 234.874 166.212 234.874 167.182C234.874 168.152 235.086 169.034 235.51 169.83C235.942 170.617 236.529 171.246 237.272 171.716C238.022 172.178 238.874 172.409 239.828 172.409C240.548 172.409 241.219 172.269 241.84 171.989C242.461 171.701 243.003 171.311 243.465 170.818C243.935 170.318 244.302 169.754 244.567 169.125C244.832 168.489 244.965 167.826 244.965 167.136C244.965 166.227 244.745 165.375 244.306 164.58C243.874 163.784 243.275 163.14 242.51 162.648C241.753 162.155 240.889 161.909 239.919 161.909Z" fill="#001219"/>
<path id="0" d="M331.376 183.318C329.664 183.318 328.206 182.852 327.001 181.92C325.797 180.981 324.876 179.621 324.24 177.841C323.604 176.053 323.285 173.894 323.285 171.364C323.285 168.848 323.604 166.701 324.24 164.92C324.884 163.133 325.808 161.769 327.013 160.83C328.225 159.883 329.679 159.409 331.376 159.409C333.073 159.409 334.524 159.883 335.729 160.83C336.941 161.769 337.865 163.133 338.501 164.92C339.145 166.701 339.467 168.848 339.467 171.364C339.467 173.894 339.149 176.053 338.513 177.841C337.876 179.621 336.956 180.981 335.751 181.92C334.547 182.852 333.088 183.318 331.376 183.318ZM331.376 180.818C333.073 180.818 334.391 180 335.331 178.364C336.27 176.727 336.74 174.394 336.74 171.364C336.74 169.348 336.524 167.633 336.092 166.216C335.668 164.799 335.054 163.72 334.251 162.977C333.456 162.235 332.497 161.864 331.376 161.864C329.694 161.864 328.38 162.693 327.433 164.352C326.486 166.004 326.013 168.341 326.013 171.364C326.013 173.379 326.225 175.091 326.649 176.5C327.073 177.909 327.683 178.981 328.479 179.716C329.282 180.451 330.247 180.818 331.376 180.818Z" fill="#001219"/>
<path id="1_2" d="M346.488 51.7273V75H343.67V54.6818H343.534L337.852 58.4545V55.5909L343.67 51.7273H346.488Z" fill="#001219"/>
<path id="8_2" d="M525.2 75.3182C523.639 75.3182 522.26 75.0417 521.063 74.4886C519.874 73.928 518.946 73.1591 518.279 72.1818C517.612 71.197 517.283 70.0758 517.29 68.8182C517.283 67.8333 517.476 66.9242 517.87 66.0909C518.264 65.25 518.802 64.5492 519.484 63.9886C520.173 63.4205 520.942 63.0606 521.79 62.9091V62.7727C520.677 62.4848 519.79 61.8598 519.131 60.8977C518.472 59.928 518.146 58.8258 518.154 57.5909C518.146 56.4091 518.446 55.3523 519.052 54.4205C519.658 53.4886 520.491 52.7538 521.552 52.2159C522.62 51.678 523.836 51.4091 525.2 51.4091C526.548 51.4091 527.753 51.678 528.813 52.2159C529.874 52.7538 530.707 53.4886 531.313 54.4205C531.927 55.3523 532.237 56.4091 532.245 57.5909C532.237 58.8258 531.9 59.928 531.234 60.8977C530.575 61.8598 529.7 62.4848 528.609 62.7727V62.9091C529.45 63.0606 530.207 63.4205 530.881 63.9886C531.556 64.5492 532.093 65.25 532.495 66.0909C532.896 66.9242 533.101 67.8333 533.109 68.8182C533.101 70.0758 532.76 71.197 532.086 72.1818C531.419 73.1591 530.491 73.928 529.302 74.4886C528.12 75.0417 526.753 75.3182 525.2 75.3182ZM525.2 72.8182C526.253 72.8182 527.162 72.6477 527.927 72.3068C528.692 71.9659 529.283 71.4848 529.7 70.8636C530.116 70.2424 530.328 69.5152 530.336 68.6818C530.328 67.803 530.101 67.0265 529.654 66.3523C529.207 65.678 528.597 65.1477 527.825 64.7614C527.059 64.375 526.184 64.1818 525.2 64.1818C524.207 64.1818 523.321 64.375 522.54 64.7614C521.768 65.1477 521.158 65.678 520.711 66.3523C520.271 67.0265 520.056 67.803 520.063 68.6818C520.056 69.5152 520.256 70.2424 520.665 70.8636C521.082 71.4848 521.677 71.9659 522.45 72.3068C523.222 72.6477 524.139 72.8182 525.2 72.8182ZM525.2 61.7727C526.033 61.7727 526.771 61.6061 527.415 61.2727C528.067 60.9394 528.578 60.4735 528.95 59.875C529.321 59.2765 529.51 58.5758 529.518 57.7727C529.51 56.9848 529.325 56.2992 528.961 55.7159C528.597 55.125 528.093 54.6705 527.45 54.3523C526.806 54.0265 526.056 53.8636 525.2 53.8636C524.328 53.8636 523.567 54.0265 522.915 54.3523C522.264 54.6705 521.76 55.125 521.404 55.7159C521.048 56.2992 520.874 56.9848 520.881 57.7727C520.874 58.5758 521.052 59.2765 521.415 59.875C521.787 60.4735 522.298 60.9394 522.95 61.2727C523.601 61.6061 524.351 61.7727 525.2 61.7727Z" fill="#001219"/>
<path id="2_2" d="M425.433 75V72.9545L433.114 64.5455C434.016 63.5606 434.758 62.7045 435.342 61.9773C435.925 61.2424 436.357 60.553 436.637 59.9091C436.925 59.2576 437.069 58.5758 437.069 57.8636C437.069 57.0455 436.872 56.3371 436.478 55.7386C436.092 55.1402 435.561 54.678 434.887 54.3523C434.213 54.0265 433.455 53.8636 432.614 53.8636C431.72 53.8636 430.94 54.0492 430.274 54.4205C429.614 54.7841 429.103 55.2955 428.739 55.9545C428.383 56.6136 428.205 57.3864 428.205 58.2727H425.524C425.524 56.9091 425.838 55.7121 426.467 54.6818C427.095 53.6515 427.952 52.8485 429.035 52.2727C430.126 51.697 431.349 51.4091 432.705 51.4091C434.069 51.4091 435.277 51.697 436.33 52.2727C437.383 52.8485 438.209 53.625 438.808 54.6023C439.406 55.5795 439.705 56.6667 439.705 57.8636C439.705 58.7197 439.55 59.5568 439.239 60.375C438.936 61.1856 438.406 62.0909 437.649 63.0909C436.899 64.0833 435.857 65.2955 434.524 66.7273L429.296 72.3182V72.5H440.114V75H425.433Z" fill="#001219"/>
<path id="Vector_38" d="M441.864 185.202C445.395 185.202 448.258 183.59 448.258 181.601C448.258 179.612 445.395 178 441.864 178C438.333 178 435.47 179.612 435.47 181.601C435.47 183.59 438.333 185.202 441.864 185.202Z" fill="#457B9D"/>
</g>
</g>
<defs>
<clipPath id="clip0_0_1">
<rect width="650" height="310" fill="white"/>
</clipPath>
</defs>
</svg>
